<svg width="24" height="24" viewBox="0 0 24 24" fill="none" xmlns="http://www.w3.org/2000/svg">
<g id="Delete Icon">
<g id="Delete">
<path id="Delete_2" fill-rule="evenodd" clip-rule="evenodd" d="M20.2871 5.24297C20.6761 5.24297 21 5.56596 21 5.97696V6.35696C21 6.75795 20.6761 7.09095 20.2871 7.09095H3.71385C3.32386 7.09095 3 6.75795 3 6.35696V5.97696C3 5.56596 3.32386 5.24297 3.71385 5.24297H6.62957C7.22185 5.24297 7.7373 4.82197 7.87054 4.22798L8.02323 3.54598C8.26054 2.61699 9.0415 2 9.93527 2H14.0647C14.9488 2 15.7385 2.61699 15.967 3.49699L16.1304 4.22698C16.2627 4.82197 16.7781 5.24297 17.3714 5.24297H20.2871ZM18.8058 19.134C19.1102 16.2971 19.6432 9.55712 19.6432 9.48912C19.6626 9.28313 19.5955 9.08813 19.4623 8.93113C19.3193 8.78413 19.1384 8.69713 18.939 8.69713H5.06848C4.86814 8.69713 4.67752 8.78413 4.54525 8.93113C4.41104 9.08813 4.3449 9.28313 4.35463 9.48912C4.35641 9.50162 4.37554 9.73903 4.40751 10.1359C4.54954 11.8992 4.94513 16.8102 5.20075 19.134C5.38164 20.846 6.50494 21.922 8.13202 21.961C9.38759 21.99 10.6811 22 12.0038 22C13.2496 22 14.5149 21.99 15.8093 21.961C17.4928 21.932 18.6152 20.875 18.8058 19.134Z" fill="#EFEFEF" fill-opacity="0.63"/>
</g>
</g>
</svg>
