<svg width="94" height="15" viewBox="0 0 94 15" fill="none" xmlns="http://www.w3.org/2000/svg">
<path d="M4.472 14.126C3.632 14.126 2.876 13.982 2.204 13.694C1.532 13.394 1.004 12.974 0.62 12.434C0.236 11.894 0.044 11.264 0.044 10.544H2.24C2.288 11.084 2.498 11.528 2.87 11.876C3.254 12.224 3.788 12.398 4.472 12.398C5.18 12.398 5.732 12.23 6.128 11.894C6.524 11.546 6.722 11.102 6.722 10.562C6.722 10.142 6.596 9.8 6.344 9.536C6.104 9.272 5.798 9.068 5.426 8.924C5.066 8.78 4.562 8.624 3.914 8.456C3.098 8.24 2.432 8.024 1.916 7.808C1.412 7.58 0.98 7.232 0.62 6.764C0.26 6.296 0.08 5.672 0.08 4.892C0.08 4.172 0.26 3.542 0.62 3.002C0.98 2.462 1.484 2.048 2.132 1.76C2.78 1.472 3.53 1.328 4.382 1.328C5.594 1.328 6.584 1.634 7.352 2.246C8.132 2.846 8.564 3.674 8.648 4.73H6.38C6.344 4.274 6.128 3.884 5.732 3.56C5.336 3.236 4.814 3.074 4.166 3.074C3.578 3.074 3.098 3.224 2.726 3.524C2.354 3.824 2.168 4.256 2.168 4.82C2.168 5.204 2.282 5.522 2.51 5.774C2.75 6.014 3.05 6.206 3.41 6.35C3.77 6.494 4.262 6.65 4.886 6.818C5.714 7.046 6.386 7.274 6.902 7.502C7.43 7.73 7.874 8.084 8.234 8.564C8.606 9.032 8.792 9.662 8.792 10.454C8.792 11.09 8.618 11.69 8.27 12.254C7.934 12.818 7.436 13.274 6.776 13.622C6.128 13.958 5.36 14.126 4.472 14.126ZM13.6073 5.756V11.246C13.6073 11.618 13.6913 11.888 13.8593 12.056C14.0393 12.212 14.3393 12.29 14.7593 12.29H16.0193V14H14.3993C13.4753 14 12.7673 13.784 12.2753 13.352C11.7833 12.92 11.5373 12.218 11.5373 11.246V5.756H10.3673V4.082H11.5373V1.616H13.6073V4.082H16.0193V5.756H13.6073ZM22.2125 14.162C21.2765 14.162 20.4305 13.952 19.6745 13.532C18.9185 13.1 18.3245 12.5 17.8925 11.732C17.4605 10.952 17.2445 10.052 17.2445 9.032C17.2445 8.024 17.4665 7.13 17.9105 6.35C18.3545 5.57 18.9605 4.97 19.7285 4.55C20.4965 4.13 21.3545 3.92 22.3025 3.92C23.2505 3.92 24.1085 4.13 24.8765 4.55C25.6445 4.97 26.2505 5.57 26.6945 6.35C27.1385 7.13 27.3605 8.024 27.3605 9.032C27.3605 10.04 27.1325 10.934 26.6765 11.714C26.2205 12.494 25.5965 13.1 24.8045 13.532C24.0245 13.952 23.1605 14.162 22.2125 14.162ZM22.2125 12.38C22.7405 12.38 23.2325 12.254 23.6885 12.002C24.1565 11.75 24.5345 11.372 24.8225 10.868C25.1105 10.364 25.2545 9.752 25.2545 9.032C25.2545 8.312 25.1165 7.706 24.8405 7.214C24.5645 6.71 24.1985 6.332 23.7425 6.08C23.2865 5.828 22.7945 5.702 22.2665 5.702C21.7385 5.702 21.2465 5.828 20.7905 6.08C20.3465 6.332 19.9925 6.71 19.7285 7.214C19.4645 7.706 19.3325 8.312 19.3325 9.032C19.3325 10.1 19.6025 10.928 20.1425 11.516C20.6945 12.092 21.3845 12.38 22.2125 12.38ZM31.4411 5.522C31.7411 5.018 32.1371 4.628 32.6291 4.352C33.1331 4.064 33.7271 3.92 34.4111 3.92V6.044H33.8891C33.0851 6.044 32.4731 6.248 32.0531 6.656C31.6451 7.064 31.4411 7.772 31.4411 8.78V14H29.3891V4.082H31.4411V5.522ZM45.3873 8.798C45.3873 9.17 45.3633 9.506 45.3153 9.806H37.7373C37.7973 10.598 38.0913 11.234 38.6193 11.714C39.1473 12.194 39.7953 12.434 40.5633 12.434C41.6673 12.434 42.4473 11.972 42.9033 11.048H45.1173C44.8173 11.96 44.2713 12.71 43.4793 13.298C42.6993 13.874 41.7273 14.162 40.5633 14.162C39.6153 14.162 38.7633 13.952 38.0073 13.532C37.2633 13.1 36.6753 12.5 36.2433 11.732C35.8233 10.952 35.6133 10.052 35.6133 9.032C35.6133 8.012 35.8173 7.118 36.2253 6.35C36.6453 5.57 37.2273 4.97 37.9713 4.55C38.7273 4.13 39.5913 3.92 40.5633 3.92C41.4993 3.92 42.3333 4.124 43.0653 4.532C43.7973 4.94 44.3673 5.516 44.7753 6.26C45.1833 6.992 45.3873 7.838 45.3873 8.798ZM43.2453 8.15C43.2333 7.394 42.9633 6.788 42.4353 6.332C41.9073 5.876 41.2533 5.648 40.4733 5.648C39.7653 5.648 39.1593 5.876 38.6553 6.332C38.1513 6.776 37.8513 7.382 37.7553 8.15H43.2453Z" fill="black"/>
<path d="M51.5964 4.766C51.6444 3.41 52.0644 2.372 52.8564 1.652C53.6484 0.919999 54.7524 0.553999 56.1684 0.553999C57.0924 0.553999 57.8784 0.715999 58.5264 1.04C59.1864 1.352 59.6844 1.784 60.0204 2.336C60.3564 2.876 60.5244 3.488 60.5244 4.172C60.5244 4.988 60.3264 5.642 59.9304 6.134C59.5344 6.614 59.0844 6.938 58.5804 7.106V7.178C60.0324 7.718 60.7584 8.75 60.7584 10.274C60.7584 11.03 60.5844 11.696 60.2364 12.272C59.8884 12.848 59.3844 13.298 58.7244 13.622C58.0644 13.946 57.2784 14.108 56.3664 14.108C54.8664 14.108 53.6784 13.748 52.8024 13.028C51.9384 12.296 51.4884 11.18 51.4524 9.68H54.8904C54.8664 10.16 54.9684 10.532 55.1964 10.796C55.4244 11.06 55.7664 11.192 56.2224 11.192C56.5704 11.192 56.8404 11.084 57.0324 10.868C57.2364 10.652 57.3384 10.364 57.3384 10.004C57.3384 9.548 57.1884 9.212 56.8884 8.996C56.6004 8.78 56.1264 8.672 55.4664 8.672H54.8364V5.81H55.4484C55.9044 5.822 56.2884 5.75 56.6004 5.594C56.9244 5.426 57.0864 5.096 57.0864 4.604C57.0864 4.232 56.9964 3.956 56.8164 3.776C56.6364 3.584 56.3904 3.488 56.0784 3.488C55.7304 3.488 55.4724 3.614 55.3044 3.866C55.1484 4.106 55.0584 4.406 55.0344 4.766H51.5964ZM68.6668 4.622C68.5828 4.214 68.4448 3.914 68.2528 3.722C68.0608 3.53 67.7788 3.434 67.4068 3.434C66.8428 3.434 66.4468 3.698 66.2188 4.226C66.0028 4.754 65.8888 5.582 65.8768 6.71C66.1168 6.338 66.4648 6.044 66.9208 5.828C67.3768 5.612 67.8808 5.504 68.4328 5.504C69.5968 5.504 70.5268 5.864 71.2227 6.584C71.9308 7.304 72.2848 8.336 72.2848 9.68C72.2848 10.568 72.0988 11.348 71.7268 12.02C71.3668 12.68 70.8388 13.19 70.1428 13.55C69.4588 13.91 68.6488 14.09 67.7128 14.09C65.8528 14.09 64.5568 13.514 63.8248 12.362C63.1048 11.198 62.7448 9.554 62.7448 7.43C62.7448 5.078 63.1288 3.35 63.8968 2.246C64.6648 1.142 65.9008 0.589999 67.6048 0.589999C68.9848 0.589999 70.0288 0.979999 70.7368 1.76C71.4568 2.528 71.8588 3.482 71.9428 4.622H68.6668ZM67.5688 8.24C67.1488 8.24 66.8008 8.36 66.5248 8.6C66.2608 8.84 66.1288 9.182 66.1288 9.626C66.1288 10.094 66.2548 10.454 66.5068 10.706C66.7588 10.958 67.1188 11.084 67.5868 11.084C68.0188 11.084 68.3548 10.964 68.5948 10.724C68.8468 10.472 68.9728 10.118 68.9728 9.662C68.9728 9.218 68.8468 8.87 68.5948 8.618C68.3548 8.366 68.0128 8.24 67.5688 8.24ZM73.8465 7.232C73.8465 5.168 74.2665 3.542 75.1065 2.354C75.9465 1.166 77.2665 0.571999 79.0665 0.571999C80.8665 0.571999 82.1865 1.166 83.0265 2.354C83.8785 3.542 84.3045 5.168 84.3045 7.232C84.3045 9.32 83.8845 10.958 83.0445 12.146C82.2045 13.334 80.8785 13.928 79.0665 13.928C77.2545 13.928 75.9285 13.334 75.0885 12.146C74.2605 10.958 73.8465 9.32 73.8465 7.232ZM80.8125 7.232C80.8125 6.152 80.6985 5.33 80.4705 4.766C80.2425 4.19 79.7745 3.902 79.0665 3.902C78.3585 3.902 77.8905 4.19 77.6625 4.766C77.4345 5.33 77.3205 6.152 77.3205 7.232C77.3205 8.336 77.4285 9.176 77.6445 9.752C77.8725 10.316 78.3465 10.598 79.0665 10.598C79.7865 10.598 80.2545 10.316 80.4705 9.752C80.6985 9.176 80.8125 8.336 80.8125 7.232ZM85.4066 4.442C85.4066 3.434 85.7606 2.642 86.4686 2.066C87.1886 1.478 88.1366 1.184 89.3126 1.184C90.4766 1.184 91.4126 1.478 92.1206 2.066C92.8286 2.642 93.1826 3.434 93.1826 4.442C93.1826 5.45 92.8286 6.254 92.1206 6.854C91.4246 7.454 90.5006 7.754 89.3486 7.754C88.5806 7.754 87.8966 7.622 87.2966 7.358C86.6966 7.082 86.2286 6.692 85.8926 6.188C85.5686 5.684 85.4066 5.102 85.4066 4.442ZM90.4646 4.46C90.4646 3.992 90.3446 3.638 90.1046 3.398C89.8766 3.158 89.6126 3.038 89.3126 3.038C89.0006 3.038 88.7246 3.158 88.4846 3.398C88.2446 3.638 88.1246 3.992 88.1246 4.46C88.1246 4.928 88.2446 5.282 88.4846 5.522C88.7366 5.75 89.0246 5.864 89.3486 5.864C89.6486 5.864 89.9066 5.75 90.1226 5.522C90.3506 5.282 90.4646 4.928 90.4646 4.46Z" fill="#0077FF"/>
</svg>
